<mxfile host="app.diagrams.net" agent="Mozilla/5.0 (Windows NT 10.0; Win64; x64) AppleWebKit/537.36 (KHTML, like Gecko) Chrome/128.0.0.0 Safari/537.36 Edg/128.0.0.0" version="24.7.10">
  <diagram id="C5RBs43oDa-KdzZeNtuy" name="Page-1">
    <mxGraphModel dx="697" dy="1151" grid="1" gridSize="10" guides="1" tooltips="1" connect="1" arrows="1" fold="1" page="0" pageScale="1" pageWidth="827" pageHeight="1169" math="0" shadow="0">
      <root>
        <mxCell id="WIyWlLk6GJQsqaUBKTNV-0" />
        <mxCell id="WIyWlLk6GJQsqaUBKTNV-1" parent="WIyWlLk6GJQsqaUBKTNV-0" />
        <mxCell id="r956ZZP-Ntq2NCkSyhIP-16" value="" style="edgeStyle=orthogonalEdgeStyle;rounded=0;orthogonalLoop=1;jettySize=auto;html=1;" edge="1" parent="WIyWlLk6GJQsqaUBKTNV-1" source="r956ZZP-Ntq2NCkSyhIP-0" target="r956ZZP-Ntq2NCkSyhIP-2">
          <mxGeometry relative="1" as="geometry" />
        </mxCell>
        <mxCell id="r956ZZP-Ntq2NCkSyhIP-0" value="customer order" style="shape=parallelogram;perimeter=parallelogramPerimeter;whiteSpace=wrap;html=1;fixedSize=1;" vertex="1" parent="WIyWlLk6GJQsqaUBKTNV-1">
          <mxGeometry x="154" y="50" width="120" height="60" as="geometry" />
        </mxCell>
        <mxCell id="r956ZZP-Ntq2NCkSyhIP-4" value="" style="edgeStyle=orthogonalEdgeStyle;rounded=0;orthogonalLoop=1;jettySize=auto;html=1;" edge="1" parent="WIyWlLk6GJQsqaUBKTNV-1" source="r956ZZP-Ntq2NCkSyhIP-2" target="r956ZZP-Ntq2NCkSyhIP-3">
          <mxGeometry relative="1" as="geometry" />
        </mxCell>
        <mxCell id="r956ZZP-Ntq2NCkSyhIP-9" value="" style="edgeStyle=orthogonalEdgeStyle;rounded=0;orthogonalLoop=1;jettySize=auto;html=1;" edge="1" parent="WIyWlLk6GJQsqaUBKTNV-1" source="r956ZZP-Ntq2NCkSyhIP-3" target="r956ZZP-Ntq2NCkSyhIP-5">
          <mxGeometry relative="1" as="geometry" />
        </mxCell>
        <mxCell id="r956ZZP-Ntq2NCkSyhIP-3" value="send order to kitchen" style="shape=process;whiteSpace=wrap;html=1;backgroundOutline=1;" vertex="1" parent="WIyWlLk6GJQsqaUBKTNV-1">
          <mxGeometry x="154" y="220" width="120" height="60" as="geometry" />
        </mxCell>
        <mxCell id="r956ZZP-Ntq2NCkSyhIP-10" value="" style="edgeStyle=orthogonalEdgeStyle;rounded=0;orthogonalLoop=1;jettySize=auto;html=1;" edge="1" parent="WIyWlLk6GJQsqaUBKTNV-1" source="r956ZZP-Ntq2NCkSyhIP-5" target="r956ZZP-Ntq2NCkSyhIP-6">
          <mxGeometry relative="1" as="geometry" />
        </mxCell>
        <mxCell id="r956ZZP-Ntq2NCkSyhIP-5" value="prepare order" style="shape=process;whiteSpace=wrap;html=1;backgroundOutline=1;" vertex="1" parent="WIyWlLk6GJQsqaUBKTNV-1">
          <mxGeometry x="154" y="300" width="120" height="60" as="geometry" />
        </mxCell>
        <mxCell id="r956ZZP-Ntq2NCkSyhIP-11" style="edgeStyle=orthogonalEdgeStyle;rounded=0;orthogonalLoop=1;jettySize=auto;html=1;exitX=0.5;exitY=1;exitDx=0;exitDy=0;" edge="1" parent="WIyWlLk6GJQsqaUBKTNV-1" source="r956ZZP-Ntq2NCkSyhIP-6" target="r956ZZP-Ntq2NCkSyhIP-7">
          <mxGeometry relative="1" as="geometry" />
        </mxCell>
        <mxCell id="r956ZZP-Ntq2NCkSyhIP-6" value="serve order to customer" style="shape=process;whiteSpace=wrap;html=1;backgroundOutline=1;" vertex="1" parent="WIyWlLk6GJQsqaUBKTNV-1">
          <mxGeometry x="154" y="390" width="120" height="60" as="geometry" />
        </mxCell>
        <mxCell id="r956ZZP-Ntq2NCkSyhIP-12" value="" style="edgeStyle=orthogonalEdgeStyle;rounded=0;orthogonalLoop=1;jettySize=auto;html=1;" edge="1" parent="WIyWlLk6GJQsqaUBKTNV-1" source="r956ZZP-Ntq2NCkSyhIP-7" target="r956ZZP-Ntq2NCkSyhIP-8">
          <mxGeometry relative="1" as="geometry" />
        </mxCell>
        <mxCell id="r956ZZP-Ntq2NCkSyhIP-7" value="handle payment" style="shape=process;whiteSpace=wrap;html=1;backgroundOutline=1;" vertex="1" parent="WIyWlLk6GJQsqaUBKTNV-1">
          <mxGeometry x="154" y="470" width="120" height="60" as="geometry" />
        </mxCell>
        <mxCell id="r956ZZP-Ntq2NCkSyhIP-8" value="end" style="ellipse;whiteSpace=wrap;html=1;" vertex="1" parent="WIyWlLk6GJQsqaUBKTNV-1">
          <mxGeometry x="154" y="560" width="120" height="40" as="geometry" />
        </mxCell>
        <mxCell id="r956ZZP-Ntq2NCkSyhIP-2" value="order confimation" style="shape=process;whiteSpace=wrap;html=1;backgroundOutline=1;" vertex="1" parent="WIyWlLk6GJQsqaUBKTNV-1">
          <mxGeometry x="154" y="140" width="120" height="58" as="geometry" />
        </mxCell>
        <mxCell id="r956ZZP-Ntq2NCkSyhIP-18" value="" style="edgeStyle=orthogonalEdgeStyle;rounded=0;orthogonalLoop=1;jettySize=auto;html=1;" edge="1" parent="WIyWlLk6GJQsqaUBKTNV-1" source="r956ZZP-Ntq2NCkSyhIP-17" target="r956ZZP-Ntq2NCkSyhIP-0">
          <mxGeometry relative="1" as="geometry" />
        </mxCell>
        <mxCell id="r956ZZP-Ntq2NCkSyhIP-17" value="start" style="ellipse;whiteSpace=wrap;html=1;" vertex="1" parent="WIyWlLk6GJQsqaUBKTNV-1">
          <mxGeometry x="154" y="-20" width="120" height="40" as="geometry" />
        </mxCell>
      </root>
    </mxGraphModel>
  </diagram>
</mxfile>
